<svg xmlns="http://www.w3.org/2000/svg" width="93" height="19" viewBox="0 0 93 19">
    <g fill="#C7C6C6" fill-rule="evenodd">
        <path d="M31.356 5.104c1.81 0 3.863.53 3.863 2.542 0 .983-.762 1.818-1.594 2.216l-.157.069v.03c1.283.228 2.249 1.15 2.249 2.497 0 2.421-2.324 3.42-4.904 3.42-.848 0-1.663-.017-2.488-.057l-.83-.05V5.21a83.91 83.91 0 0 1 3.861-.105zM41.47 7.372c.875 0 1.557.034 2.289.091l.37.03v6.327c0 .397.14.716.512.716.104 0 .2-.017.28-.05l.075-.04.077.06c-.077.687-.618 1.25-1.561 1.25-.862 0-1.545-.502-1.618-1.342l-.006-.151v-.2h-.047c-.742.886-1.624 1.815-2.876 1.815-1.856 0-2.398-2.195-2.398-3.75 0-2.926 1.532-4.756 4.903-4.756zm9.627 0c.441 0 .912.153 1.247.441.519.437.61 1.08.621 1.717l.002.159v4.253c0 .396.121.716.487.716a.618.618 0 0 0 .262-.05l.071-.04.076.06c-.06.687-.608 1.25-1.535 1.25-.994 0-1.564-.616-1.621-1.639l-.005-.174v-3.797c0-.594-.365-.869-.806-.869-.748 0-1.43.684-1.901 1.172l-.105.109v5.076h-2.25v-8.14h2.204V9.17h.046c.927-.99 1.9-1.799 3.207-1.799zm7.418 0c.499 0 1.028.02 1.532.082l.372.055-.235 1.738a4.227 4.227 0 0 0-1.31-.213c-1.655 0-2.31.914-2.31 2.424 0 1.508.906 2.849 2.59 2.849.465 0 .905-.116 1.248-.35l.141-.107.108.061c.017.092.017.183.017.275 0 .976-.81 1.692-2.248 1.692-2.588 0-4.273-1.906-4.273-4.39 0-2.638 1.747-4.116 4.368-4.116zm6.708-.284c2.5 0 3.951 1.543 3.951 4.056 0 2.559-1.513 4.734-4.212 4.734-2.654 0-4.01-2.004-4.01-4.504 0-2.621 1.665-4.286 4.271-4.286zm9.516-1.984c1.81 0 3.862.53 3.862 2.542 0 .983-.762 1.818-1.594 2.216l-.157.069v.03c1.282.228 2.248 1.15 2.248 2.497 0 2.421-2.324 3.42-4.903 3.42-.849 0-1.663-.017-2.489-.057l-.83-.05V5.21c1.282-.06 2.58-.105 3.863-.105zm8.045 0v10.774h-2.552V5.104h2.552zm7.393-.284c.873 0 1.746.045 2.603.18l-.255 1.785c-.678-.226-1.43-.317-2.137-.317-2.347 0-3.688 1.18-3.688 3.54 0 2.451 1.656 4.25 4.214 4.25.663 0 1.4-.119 1.972-.498l.09.076c.015.09.015.197.015.287 0 1.468-1.536 1.755-2.678 1.755-3.462 0-6.111-2.178-6.111-5.809 0-3.616 2.634-5.249 5.975-5.249zM31.19 11.006c-.27 0-.562.006-.847.015l-.42.015v3.42c.318.03.695.06 1.011.06 1.147 0 2.293-.56 2.293-1.83 0-1.166-.965-1.68-2.037-1.68zm43.381 0c-.27 0-.562.006-.847.015l-.42.015v3.42c.318.03.695.06 1.011.06 1.147 0 2.293-.56 2.293-1.83 0-1.166-.965-1.68-2.037-1.68zM65.04 8.584c-1.405 0-1.698 1.466-1.698 2.56 0 1.11.231 3.238 1.774 3.238 1.404 0 1.682-1.912 1.682-2.961 0-1.125-.278-2.837-1.758-2.837zm-24.096.237c-1.469 0-1.995 1.325-1.995 2.667 0 .762.14 2.363 1.145 2.363.617 0 1.249-.684 1.657-1.184l.09-.112V8.943a4.028 4.028 0 0 0-.897-.122zm-9.98-2.356c-.294 0-.537.017-.786.038l-.254.023v3.178c.361.03.709.03 1.056.03 1.04 0 1.84-.65 1.84-1.694 0-1.075-.874-1.575-1.855-1.575zm43.382 0c-.295 0-.538.017-.787.038l-.254.023v3.178c.363.03.709.03 1.056.03 1.04 0 1.84-.65 1.84-1.694 0-1.075-.874-1.575-1.855-1.575zM6.238 17.58c-.01-.49 2.584-1.096 5.795-1.327 3.21-.232 5.82-.004 5.83.489.009.492-2.586 1.078-5.795 1.31-3.211.233-5.82.022-5.83-.471"/>
        <path d="M2.92 1.321c-.074.616.508 1.23 1.008 1.063.593-.197.05-2.072-.523-1.8-.284.136-.441.375-.485.737M16.65.28c-.101.275.066.637.317.682.308.055.282-1.027-.023-.959-.145.032-.235.117-.293.277m-3.64 3.59c-.379.376-.555.69-.705 1.253-.29 1.095 2.855-1.977 1.9-1.855-.505.064-.807.217-1.195.601M7.155 2.198c-.904-.067 1.21 3.288 1.408 2.231.048-.26.053-.417.018-.68-.118-.885-.68-1.497-1.426-1.551m2.57-.749c.346-.228.01-1.396-.617-.982-.241.16-.201.452-.1.706.129.315.462.444.716.276m2.659-.933c-.506-.337-.694 1.15-.707 1.543-.014.467 1.211-1.207.707-1.543m6.195.042c1.505.147-1.451 2.213-2.498 3.5-1.113 1.37-1.486 2.94-3.029 3.302-2.965.954-.074 4.592-.506 9.978-.026.663-6.255.726-6.393.028-.33-3.151 2.722-7.252 1.096-10.234-.815-1.367-4.4-3.371-5.265-4.229C1.203 2.128-.707.823.273.558.52.49.67.529.923.558c1.372.155 1.487 2.476 2.864 2.518.49.015.888.142 1.232-.27.537-.645-.546-1.334-.586-2.248-.12-2.737 3.752 7.04 4.553 4.486.157-.498.214-.811.195-1.345C9.12 1.993 5.193.952 6.58.584c.308-.081.495-.06.81-.026 1.052.114 1.387 1.937 2.39 1.554.667-.255.521-1.608 1.225-1.567.92.055-.435 2.005.192 2.821 1.01 1.314 2.348-4.433 2.964-2.808.091.24.12.39.158.649.248 1.76-1.772 1.847-2.57 3.339-.05.093-.088.137-.124.239-.115.317-.123.614.06.885.073.106.142.131.232.218 1.09 1.057 4.394-2.83 3.416-4.91-.13-.279.175-.666.578-.42.52.315-.106 1.283.335 1.74.724.747.993-1.644 1.94-1.74.152-.016.24-.016.392 0"/>
    </g>
</svg>
